<svg width="20" height="20" viewBox="0 0 20 20" fill="none" xmlns="http://www.w3.org/2000/svg">
<path d="M11.6797 8.98438C12.1111 8.98438 12.4609 8.6346 12.4609 8.20312C12.4609 7.77165 12.1111 7.42188 11.6797 7.42188C11.2482 7.42188 10.8984 7.77165 10.8984 8.20312C10.8984 8.6346 11.2482 8.98438 11.6797 8.98438Z" fill="#E0E0E0"/>
<path d="M11.6797 12.3828C12.1111 12.3828 12.4609 12.033 12.4609 11.6016C12.4609 11.1701 12.1111 10.8203 11.6797 10.8203C11.2482 10.8203 10.8984 11.1701 10.8984 11.6016C10.8984 12.033 11.2482 12.3828 11.6797 12.3828Z" fill="#E0E0E0"/>
<path d="M15.0781 8.98438C15.5096 8.98438 15.8594 8.6346 15.8594 8.20312C15.8594 7.77165 15.5096 7.42188 15.0781 7.42188C14.6466 7.42188 14.2969 7.77165 14.2969 8.20312C14.2969 8.6346 14.6466 8.98438 15.0781 8.98438Z" fill="#E0E0E0"/>
<path d="M19.2187 13.6719C19.6502 13.6719 20 13.3221 20 12.8906V4.6875C20 2.96438 18.5981 1.5625 16.875 1.5625H15.8594V0.78125C15.8594 0.349766 15.5096 0 15.0781 0C14.6466 0 14.2969 0.349766 14.2969 0.78125V1.5625H10.7422V0.78125C10.7422 0.349766 10.3924 0 9.96092 0C9.52944 0 9.17967 0.349766 9.17967 0.78125V1.5625H5.66405V0.78125C5.66405 0.349766 5.31429 0 4.8828 0C4.45132 0 4.10156 0.349766 4.10156 0.78125V1.5625H3.125C1.40187 1.5625 0 2.96438 0 4.6875V16.875C0 18.5981 1.40187 20 3.125 20H12.9687C12.9953 20 13.0216 19.9986 13.0475 19.996C13.0733 19.9986 13.099 20 13.1248 20C13.3331 20 13.5375 19.9166 13.6877 19.7607L19.7815 13.4325C19.9988 13.2068 20.0603 12.8731 19.9377 12.5848C19.815 12.2966 19.532 12.1094 19.2187 12.1094H15.4687C13.7456 12.1094 12.3437 13.5112 12.3437 15.2344V18.4375H3.125C2.26343 18.4375 1.5625 17.7366 1.5625 16.875V4.6875C1.5625 3.82594 2.26343 3.125 3.125 3.125H4.10156V3.90625C4.10156 4.33773 4.45132 4.6875 4.8828 4.6875C5.31429 4.6875 5.66405 4.33773 5.66405 3.90625V3.125H9.17967V3.90625C9.17967 4.33773 9.52944 4.6875 9.96092 4.6875C10.3924 4.6875 10.7422 4.33773 10.7422 3.90625V3.125H14.2969V3.90625C14.2969 4.33773 14.6466 4.6875 15.0781 4.6875C15.5096 4.6875 15.8594 4.33773 15.8594 3.90625V3.125H16.875C17.7365 3.125 18.4375 3.82594 18.4375 4.6875V12.8906C18.4375 13.3221 18.7872 13.6719 19.2187 13.6719ZM13.9062 15.2344C13.9062 14.3728 14.6072 13.6719 15.4687 13.6719H17.3818L13.9062 17.2812V15.2344Z" fill="#E0E0E0"/>
<path d="M4.8828 8.98438C5.31428 8.98438 5.66405 8.6346 5.66405 8.20312C5.66405 7.77165 5.31428 7.42188 4.8828 7.42188C4.45133 7.42188 4.10156 7.77165 4.10156 8.20312C4.10156 8.6346 4.45133 8.98438 4.8828 8.98438Z" fill="#E0E0E0"/>
<path d="M8.28124 12.3828C8.71271 12.3828 9.06249 12.033 9.06249 11.6016C9.06249 11.1701 8.71271 10.8203 8.28124 10.8203C7.84977 10.8203 7.49999 11.1701 7.49999 11.6016C7.49999 12.033 7.84977 12.3828 8.28124 12.3828Z" fill="#E0E0E0"/>
<path d="M4.8828 15.7812C5.31428 15.7812 5.66405 15.4315 5.66405 15C5.66405 14.5685 5.31428 14.2188 4.8828 14.2188C4.45133 14.2188 4.10156 14.5685 4.10156 15C4.10156 15.4315 4.45133 15.7812 4.8828 15.7812Z" fill="#E0E0E0"/>
<path d="M4.8828 12.3828C5.31428 12.3828 5.66405 12.033 5.66405 11.6016C5.66405 11.1701 5.31428 10.8203 4.8828 10.8203C4.45133 10.8203 4.10156 11.1701 4.10156 11.6016C4.10156 12.033 4.45133 12.3828 4.8828 12.3828Z" fill="#E0E0E0"/>
<path d="M8.28124 15.7812C8.71271 15.7812 9.06249 15.4315 9.06249 15C9.06249 14.5685 8.71271 14.2188 8.28124 14.2188C7.84977 14.2188 7.49999 14.5685 7.49999 15C7.49999 15.4315 7.84977 15.7812 8.28124 15.7812Z" fill="#E0E0E0"/>
<path d="M8.28124 8.98438C8.71271 8.98438 9.06249 8.6346 9.06249 8.20312C9.06249 7.77165 8.71271 7.42188 8.28124 7.42188C7.84977 7.42188 7.49999 7.77165 7.49999 8.20312C7.49999 8.6346 7.84977 8.98438 8.28124 8.98438Z" fill="#E0E0E0"/>
</svg>
