<svg width="330" height="330" viewBox="0 0 330 330" fill="none" xmlns="http://www.w3.org/2000/svg">
<path d="M175.59 4.393C172.776 1.58 168.961 0 164.983 0C161.004 0.001 157.19 1.581 154.377 4.395C150.114 8.657 49.9922 110.003 49.9922 215.016C49.9922 278.418 101.577 330 164.984 330C228.408 330 280.008 278.418 280.008 215.016C280.008 110.002 179.853 8.655 175.59 4.393ZM164.984 300C118.12 300 79.9932 261.876 79.9932 215.016C79.9932 141.296 140.098 65.392 164.996 37.117C189.91 65.356 250.008 141.14 250.008 215.016C250.008 261.876 211.866 300 164.984 300Z" fill="black"/>
</svg>
