<svg width="22" height="22" viewBox="0 0 22 22" fill="none" xmlns="http://www.w3.org/2000/svg">
<path d="M18.0711 3.92895C16.1823 2.0402 13.6711 1 11 1C8.32887 1 5.81766 2.0402 3.92887 3.92895C2.04016 5.8177 1 8.32891 1 11C1 13.6711 2.04016 16.1823 3.92887 18.0711C5.81766 19.9598 8.32887 21 11 21C11.3236 21 11.5859 20.7377 11.5859 20.4141C11.5859 20.0905 11.3236 19.8281 11 19.8281C6.13215 19.8281 2.17188 15.8679 2.17188 11C2.17188 6.13215 6.13215 2.17188 11 2.17188C15.8678 2.17188 19.8281 6.13215 19.8281 11V13.3535C19.8281 14.3282 19.0352 15.1211 18.0605 15.1211C17.0859 15.1211 16.293 14.3282 16.293 13.3535V11C16.293 8.08145 13.9186 5.70703 11 5.70703C8.08145 5.70703 5.70703 8.08145 5.70703 11C5.70703 13.9186 8.08145 16.293 11 16.293C12.7311 16.293 14.2707 15.4576 15.237 14.1688C15.5914 15.3941 16.7226 16.293 18.0605 16.293C19.6814 16.293 21 14.9743 21 13.3535V11C21 8.32891 19.9598 5.8177 18.0711 3.92895ZM11 15.1211C8.72758 15.1211 6.87891 13.2724 6.87891 11C6.87891 8.72762 8.72758 6.87891 11 6.87891C13.2724 6.87891 15.1211 8.72762 15.1211 11C15.1211 13.2724 13.2724 15.1211 11 15.1211Z" fill="white" stroke="white" stroke-width="0.3"/>
</svg>
