<svg width="12" height="22" viewBox="0 0 12 22" fill="none" xmlns="http://www.w3.org/2000/svg">
<path fill-rule="evenodd" clip-rule="evenodd" d="M6 1.60155C3.59003 1.60155 1.63636 3.51365 1.63636 5.87234C1.63636 8.23103 3.59003 10.1431 6 10.1431C8.40997 10.1431 10.3636 8.23103 10.3636 5.87234C10.3636 3.51365 8.40997 1.60155 6 1.60155ZM12 5.87234C12 8.84392 9.74483 11.3 6.81818 11.6905V15.0453L6.82258 15.0453H10.169C10.6236 15.0453 10.9922 15.4116 10.9922 15.8634C10.9922 16.3153 10.6236 16.6816 10.169 16.6816H6.82258L6.81818 16.6816V18.3505C6.82089 18.3505 6.8236 18.3505 6.82631 18.3505H9.15473C9.61132 18.3505 9.98146 18.7168 9.98146 19.1686C9.98146 19.6205 9.61132 19.9868 9.15473 19.9868H6.82631C6.8236 19.9868 6.82089 19.9868 6.81818 19.9868V21.1992C6.81818 21.6415 6.45187 22 6 22C5.54813 22 5.18182 21.6415 5.18182 21.1992V11.6905C2.25517 11.3 0 8.84392 0 5.87234C0 2.62914 2.68629 0 6 0C9.31371 0 12 2.62914 12 5.87234Z" fill="white"/>
</svg>
