<svg width="155" height="50" viewBox="0 0 155 50" fill="none" xmlns="http://www.w3.org/2000/svg">
<path d="M78.558 25.762C78.2207 27.0527 77.854 28.314 77.458 29.546C77.0767 30.7633 76.6953 31.9147 76.314 33H74.136C73.8427 32.3253 73.5347 31.5553 73.212 30.69C72.8893 29.8247 72.5667 28.9007 72.244 27.918C71.9213 26.9353 71.5987 25.9013 71.276 24.816C70.9533 23.7307 70.638 22.6233 70.33 21.494H73.146C73.278 22.11 73.432 22.7773 73.608 23.496C73.784 24.2 73.9673 24.926 74.158 25.674C74.3487 26.4073 74.5467 27.126 74.752 27.83C74.9573 28.534 75.1627 29.1793 75.368 29.766C75.588 29.0913 75.8007 28.3947 76.006 27.676C76.226 26.9573 76.4313 26.2387 76.622 25.52C76.8127 24.8013 76.9887 24.1047 77.15 23.43C77.326 22.7407 77.48 22.0953 77.612 21.494H79.658C79.79 22.0953 79.9367 22.7407 80.098 23.43C80.2593 24.1047 80.428 24.8013 80.604 25.52C80.7947 26.2387 80.9927 26.9573 81.198 27.676C81.418 28.3947 81.638 29.0913 81.858 29.766C82.0487 29.1793 82.2467 28.534 82.452 27.83C82.6573 27.126 82.8553 26.4073 83.046 25.674C83.2513 24.926 83.442 24.2 83.618 23.496C83.794 22.7773 83.948 22.11 84.08 21.494H86.83C86.522 22.6233 86.2067 23.7307 85.884 24.816C85.5613 25.9013 85.2387 26.9353 84.916 27.918C84.5933 28.9007 84.2707 29.8247 83.948 30.69C83.6253 31.5553 83.31 32.3253 83.002 33H80.846C80.4647 31.9147 80.0687 30.7633 79.658 29.546C79.262 28.314 78.8953 27.0527 78.558 25.762Z" fill="white"/>
<path d="M88.222 27.302C88.222 26.29 88.3687 25.4027 88.662 24.64C88.97 23.8773 89.3734 23.2467 89.872 22.748C90.3707 22.2347 90.9427 21.8533 91.588 21.604C92.2333 21.34 92.8933 21.208 93.568 21.208C95.152 21.208 96.384 21.6993 97.264 22.682C98.1587 23.6647 98.606 25.1313 98.606 27.082C98.606 27.2287 98.5987 27.3973 98.584 27.588C98.584 27.764 98.5767 27.9253 98.562 28.072H90.972C91.0453 28.996 91.368 29.7147 91.94 30.228C92.5267 30.7267 93.37 30.976 94.47 30.976C95.1153 30.976 95.702 30.9173 96.23 30.8C96.7727 30.6827 97.198 30.558 97.506 30.426L97.858 32.604C97.7113 32.6773 97.506 32.758 97.242 32.846C96.9927 32.9193 96.6993 32.9853 96.362 33.044C96.0393 33.1173 95.6873 33.176 95.306 33.22C94.9247 33.264 94.536 33.286 94.14 33.286C93.128 33.286 92.248 33.1393 91.5 32.846C90.752 32.538 90.136 32.12 89.652 31.592C89.168 31.0493 88.8087 30.4187 88.574 29.7C88.3393 28.9667 88.222 28.1673 88.222 27.302ZM95.944 26.114C95.944 25.7473 95.8927 25.4027 95.79 25.08C95.6873 24.7427 95.5333 24.4567 95.328 24.222C95.1374 23.9727 94.8953 23.782 94.602 23.65C94.3233 23.5033 93.986 23.43 93.59 23.43C93.1794 23.43 92.82 23.5107 92.512 23.672C92.204 23.8187 91.94 24.0167 91.72 24.266C91.5147 24.5153 91.3533 24.8013 91.236 25.124C91.1187 25.4467 91.038 25.7767 90.994 26.114H95.944Z" fill="white"/>
<path d="M105.476 31.13C106.298 31.13 106.921 31.086 107.346 30.998V28.05C107.2 28.006 106.987 27.962 106.708 27.918C106.43 27.874 106.122 27.852 105.784 27.852C105.491 27.852 105.19 27.874 104.882 27.918C104.589 27.962 104.318 28.0427 104.068 28.16C103.834 28.2773 103.643 28.446 103.496 28.666C103.35 28.8713 103.276 29.1353 103.276 29.458C103.276 30.0887 103.474 30.5287 103.87 30.778C104.266 31.0127 104.802 31.13 105.476 31.13ZM105.256 21.208C106.136 21.208 106.877 21.318 107.478 21.538C108.08 21.758 108.556 22.066 108.908 22.462C109.275 22.858 109.532 23.342 109.678 23.914C109.84 24.4713 109.92 25.0873 109.92 25.762V32.736C109.51 32.824 108.886 32.9267 108.05 33.044C107.229 33.176 106.298 33.242 105.256 33.242C104.567 33.242 103.936 33.176 103.364 33.044C102.792 32.912 102.301 32.6993 101.89 32.406C101.494 32.1127 101.179 31.7313 100.944 31.262C100.724 30.7927 100.614 30.2133 100.614 29.524C100.614 28.864 100.739 28.3067 100.988 27.852C101.252 27.3973 101.604 27.0307 102.044 26.752C102.484 26.4587 102.99 26.2533 103.562 26.136C104.149 26.004 104.758 25.938 105.388 25.938C105.682 25.938 105.99 25.96 106.312 26.004C106.635 26.0333 106.98 26.092 107.346 26.18V25.74C107.346 25.432 107.31 25.1387 107.236 24.86C107.163 24.5813 107.031 24.3393 106.84 24.134C106.664 23.914 106.422 23.7453 106.114 23.628C105.821 23.5107 105.447 23.452 104.992 23.452C104.376 23.452 103.812 23.496 103.298 23.584C102.785 23.672 102.367 23.7747 102.044 23.892L101.714 21.736C102.052 21.6187 102.543 21.5013 103.188 21.384C103.834 21.2667 104.523 21.208 105.256 21.208Z" fill="white"/>
<path d="M113.048 18.458L115.71 18.018V21.494H119.802V23.716H115.71V28.402C115.71 29.326 115.857 29.986 116.15 30.382C116.444 30.778 116.942 30.976 117.646 30.976C118.13 30.976 118.556 30.9247 118.922 30.822C119.304 30.7193 119.604 30.624 119.824 30.536L120.264 32.648C119.956 32.78 119.553 32.912 119.054 33.044C118.556 33.1907 117.969 33.264 117.294 33.264C116.473 33.264 115.784 33.154 115.226 32.934C114.684 32.714 114.251 32.3987 113.928 31.988C113.606 31.5627 113.378 31.0567 113.246 30.47C113.114 29.8687 113.048 29.1867 113.048 28.424V18.458Z" fill="white"/>
<path d="M122.376 33V16.368L125.038 15.928V21.626C125.331 21.5233 125.668 21.4353 126.05 21.362C126.446 21.2887 126.834 21.252 127.216 21.252C128.14 21.252 128.902 21.384 129.504 21.648C130.12 21.8973 130.611 22.2567 130.978 22.726C131.344 23.1807 131.601 23.7307 131.748 24.376C131.909 25.0213 131.99 25.74 131.99 26.532V33H129.328V26.95C129.328 26.334 129.284 25.8133 129.196 25.388C129.122 24.948 128.99 24.596 128.8 24.332C128.624 24.0533 128.382 23.8553 128.074 23.738C127.766 23.606 127.384 23.54 126.93 23.54C126.578 23.54 126.218 23.5767 125.852 23.65C125.485 23.7233 125.214 23.7893 125.038 23.848V33H122.376Z" fill="white"/>
<path d="M134.542 27.302C134.542 26.29 134.689 25.4027 134.982 24.64C135.29 23.8773 135.694 23.2467 136.192 22.748C136.691 22.2347 137.263 21.8533 137.908 21.604C138.554 21.34 139.214 21.208 139.888 21.208C141.472 21.208 142.704 21.6993 143.584 22.682C144.479 23.6647 144.926 25.1313 144.926 27.082C144.926 27.2287 144.919 27.3973 144.904 27.588C144.904 27.764 144.897 27.9253 144.882 28.072H137.292C137.366 28.996 137.688 29.7147 138.26 30.228C138.847 30.7267 139.69 30.976 140.79 30.976C141.436 30.976 142.022 30.9173 142.55 30.8C143.093 30.6827 143.518 30.558 143.826 30.426L144.178 32.604C144.032 32.6773 143.826 32.758 143.562 32.846C143.313 32.9193 143.02 32.9853 142.682 33.044C142.36 33.1173 142.008 33.176 141.626 33.22C141.245 33.264 140.856 33.286 140.46 33.286C139.448 33.286 138.568 33.1393 137.82 32.846C137.072 32.538 136.456 32.12 135.972 31.592C135.488 31.0493 135.129 30.4187 134.894 29.7C134.66 28.9667 134.542 28.1673 134.542 27.302ZM142.264 26.114C142.264 25.7473 142.213 25.4027 142.11 25.08C142.008 24.7427 141.854 24.4567 141.648 24.222C141.458 23.9727 141.216 23.782 140.922 23.65C140.644 23.5033 140.306 23.43 139.91 23.43C139.5 23.43 139.14 23.5107 138.832 23.672C138.524 23.8187 138.26 24.0167 138.04 24.266C137.835 24.5153 137.674 24.8013 137.556 25.124C137.439 25.4467 137.358 25.7767 137.314 26.114H142.264Z" fill="white"/>
<path d="M154.305 23.892C154.085 23.8187 153.777 23.7453 153.381 23.672C152.999 23.584 152.552 23.54 152.039 23.54C151.745 23.54 151.43 23.5693 151.093 23.628C150.77 23.6867 150.543 23.738 150.411 23.782V33H147.749V22.044C148.262 21.8533 148.9 21.6773 149.663 21.516C150.44 21.34 151.298 21.252 152.237 21.252C152.413 21.252 152.618 21.2667 152.853 21.296C153.087 21.3107 153.322 21.34 153.557 21.384C153.791 21.4133 154.019 21.4573 154.239 21.516C154.459 21.56 154.635 21.604 154.767 21.648L154.305 23.892Z" fill="white"/>
<path d="M37.032 20.912C35.5387 25.0187 34.792 27.968 34.792 29.76C34.792 31.5147 35.1093 32.392 35.744 32.392C35.856 32.0933 35.9867 31.6827 36.136 31.16C36.248 31.4213 36.304 31.8133 36.304 32.336C36.304 33.3067 36.0053 33.792 35.408 33.792C33.4667 33.792 32.496 32.112 32.496 28.752C32.496 27.1467 32.7573 25.056 33.28 22.48C32.4213 23.3387 31.5627 24.4027 30.704 25.672L27.792 29.76C26.1867 32.0373 25.1973 33.176 24.824 33.176C23.5547 33.176 22.92 32.952 22.92 32.504C22.92 32.392 23.1253 31.5147 23.536 29.872C24.8427 25.0187 25.496 21.7147 25.496 19.96C25.496 19.176 25.2533 18.784 24.768 18.784C23.3867 18.784 21.52 20.8187 19.168 24.888C18.3467 26.3813 17.432 28.248 16.424 30.488C15.4533 32.6907 14.9307 33.792 14.856 33.792C14.4827 33.792 14.0907 33.6987 13.68 33.512C13.2693 33.3253 13.064 33.1013 13.064 32.84C13.064 32.2053 13.68 29.9653 14.912 26.12C16.144 22.2373 16.76 19.3253 16.76 17.384C16.76 16.7493 16.4987 16.4133 15.976 16.376C15.4533 16.3013 15.192 16.1893 15.192 16.04C15.192 15.704 15.472 15.536 16.032 15.536C18.5333 15.536 19.784 16.5627 19.784 18.616C19.784 19.6613 19.3547 21.3973 18.496 23.824L19.784 21.64C20.8293 19.9227 21.7813 18.672 22.64 17.888C23.536 17.104 24.4693 16.712 25.44 16.712C25.4773 16.712 25.5147 16.712 25.552 16.712C27.2693 16.712 28.128 17.8693 28.128 20.184C28.128 22.0507 27.4373 25.0373 26.056 29.144L33.728 20.856C34.2133 20.5573 34.8853 20.408 35.744 20.408C36.6027 20.408 37.032 20.576 37.032 20.912Z" fill="white"/>
<path fill-rule="evenodd" clip-rule="evenodd" d="M25 47C37.1503 47 47 37.1503 47 25C47 12.8497 37.1503 3 25 3C12.8497 3 3 12.8497 3 25C3 37.1503 12.8497 47 25 47ZM25 50C38.8071 50 50 38.8071 50 25C50 11.1929 38.8071 0 25 0C11.1929 0 0 11.1929 0 25C0 38.8071 11.1929 50 25 50Z" fill="white"/>
</svg>
