<svg width="12" height="24" viewBox="0 0 12 24" fill="none" xmlns="http://www.w3.org/2000/svg">
<path fill-rule="evenodd" clip-rule="evenodd" d="M6 1.46939C4.38346 1.46939 3.13044 2.64067 3.13044 4.02041C3.13044 5.40014 4.38346 6.57143 6 6.57143C7.61654 6.57143 8.86957 5.40014 8.86957 4.02041C8.86957 2.64067 7.61654 1.46939 6 1.46939ZM1.56522 4.02041C1.56522 1.77084 3.58246 0 6 0C8.41754 0 10.4348 1.77084 10.4348 4.02041C10.4348 5.71146 9.29486 7.132 7.70187 7.73312C8.64608 7.98578 9.51743 8.44752 10.2307 9.08926C11.3594 10.1047 12 11.4887 12 12.9388V15.7551C12 16.1609 11.6496 16.4898 11.2174 16.4898H9.81759L8.86299 23.3603C8.81215 23.7263 8.48005 24 8.08696 24H3.91304C3.51995 24 3.18785 23.7263 3.13701 23.3603L2.18241 16.4898H0.782609C0.350386 16.4898 0 16.1609 0 15.7551V12.9388C0 11.4887 0.640598 10.1047 1.76926 9.08926C2.48257 8.44752 3.35392 7.98578 4.29813 7.73312C2.70514 7.132 1.56522 5.71146 1.56522 4.02041ZM6 8.97959C4.81333 8.97959 3.68161 9.40399 2.85224 10.1501C2.024 10.8953 1.56522 11.8991 1.56522 12.9388V15.0204H2.86957C3.26266 15.0204 3.59476 15.2942 3.6456 15.6601L4.6002 22.5306H7.3998L8.3544 15.6601C8.40524 15.2942 8.73734 15.0204 9.13044 15.0204H10.4348V12.9388C10.4348 11.8991 9.976 10.8953 9.14776 10.1501C8.31839 9.40399 7.18667 8.97959 6 8.97959Z" fill="white"/>
</svg>
