<svg width="22" height="18" viewBox="0 0 22 18" fill="none" xmlns="http://www.w3.org/2000/svg">
<path d="M10.999 1C6.08237 1 1.67668 4.12825 0.0357884 8.78451C-0.0132316 8.92448 -0.0132316 9.07552 0.0357884 9.21549C1.67668 13.8717 6.08237 17 10.999 17C15.9157 17 20.3214 13.8717 21.9623 9.21549C22.0113 9.07552 22.0113 8.92448 21.9623 8.78451C20.3213 4.12825 15.9156 1 10.999 1ZM10.999 15.6667C6.74642 15.6667 2.92414 12.9967 1.41549 9C2.92414 5.00325 6.74638 2.33335 10.999 2.33335C15.2516 2.33335 19.0739 5.00325 20.5826 9C19.0739 12.9967 15.2516 15.6667 10.999 15.6667Z" fill="white"/>
<path d="M11.0829 5.00101C8.79101 5.00101 6.9266 6.79529 6.9266 9.00101C6.9266 11.2067 8.79101 13.001 11.0829 13.001C13.3748 13.001 15.2393 11.2068 15.2393 9.00101C15.2393 6.79525 13.3748 5.00101 11.0829 5.00101ZM11.0829 11.6677C9.55473 11.6677 8.31206 10.4717 8.31206 9.00101C8.31206 7.53029 9.55477 6.33435 11.0829 6.33435C12.6111 6.33435 13.8538 7.53033 13.8538 9.00101C13.8538 10.4717 12.6111 11.6677 11.0829 11.6677Z" fill="white"/>
</svg>
