<svg width="384" height="384" viewBox="0 0 384 384" fill="none" xmlns="http://www.w3.org/2000/svg">
<path d="M56 208H16C7.168 208 0 215.168 0 224C0 232.832 7.168 240 16 240H56C64.832 240 72 232.832 72 224C72 215.168 64.832 208 56 208Z" fill="black"/>
<path d="M384 152C384 103.48 344.52 64 296 64C247.48 64 208 103.48 208 152C208 160.832 215.168 168 224 168C232.832 168 240 160.832 240 152C240 121.12 265.12 96 296 96C326.88 96 352 121.12 352 152C352 182.88 326.88 208 296 208H248H176H136C127.168 208 120 215.168 120 224C120 232.832 127.168 240 136 240H176H240C270.88 240 296 265.12 296 296C296 326.88 270.88 352 240 352C209.12 352 184 326.88 184 296C184 287.168 176.832 280 168 280C159.168 280 152 287.168 152 296C152 344.52 191.48 384 240 384C288.52 384 328 344.52 328 296C328 274.552 320.264 254.888 307.464 239.6C308.416 239.392 309.344 239.112 310.224 238.744C351.992 231.904 384 195.672 384 152Z" fill="black"/>
<path d="M88 0C39.48 0 0 39.48 0 88C0 96.832 7.168 104 16 104C24.832 104 32 96.832 32 88C32 57.12 57.12 32 88 32C118.88 32 144 57.12 144 88C144 118.88 118.88 144 88 144H16C7.168 144 0 151.168 0 160C0 168.832 7.168 176 16 176H88C136.52 176 176 136.52 176 88C176 39.48 136.52 0 88 0Z" fill="black"/>
</svg>
